<svg width="233" height="153" viewBox="0 0 233 153" fill="none" xmlns="http://www.w3.org/2000/svg">
<path d="M0.515304 150V10.8239H32.3209V67.8178H32.9613L74.1591 10.8239H108.953L32.3209 112.004V150H0.515304ZM78.0014 150L45.5554 85.3215L64.1265 60.7736L112.795 150H78.0014ZM186.142 152.562C181.304 152.562 176.323 151.352 171.2 148.933C166.219 146.513 161.594 143.027 157.325 138.473H156.471L153.91 150H129.362V0.364293H160.741V37.0795L159.673 53.7294H160.314C164.441 49.8871 168.994 46.8987 173.975 44.764C179.098 42.6294 184.221 41.5621 189.344 41.5621C198.31 41.5621 205.923 43.7679 212.185 48.1794C218.588 52.5909 223.498 58.8524 226.913 66.9639C230.329 74.9331 232.036 84.3254 232.036 95.1407C232.036 107.237 229.831 117.625 225.419 126.306C221.15 134.844 215.529 141.39 208.556 145.944C201.583 150.356 194.112 152.562 186.142 152.562ZM179.098 126.946C182.941 126.946 186.427 125.879 189.558 123.744C192.689 121.61 195.179 118.266 197.029 113.712C198.879 109.016 199.804 103.039 199.804 95.7811C199.804 89.3773 199.092 84.1119 197.669 79.985C196.246 75.7158 194.112 72.5139 191.265 70.3793C188.562 68.2447 184.933 67.1774 180.379 67.1774C176.964 67.1774 173.619 67.9601 170.346 69.5255C167.216 70.9485 164.014 73.4389 160.741 76.9966V119.902C163.729 122.321 166.789 124.1 169.919 125.239C173.192 126.377 176.252 126.946 179.098 126.946Z" fill="#FFD79C"/>
</svg>
