<svg width="361" height="119" viewBox="0 0 361 119" fill="none" xmlns="http://www.w3.org/2000/svg">
<path d="M64.5072 111.843L0.296483 70.2559V53.2883L64.5072 11.7011V33.8255L20.4247 61.4394V62.1048L64.5072 89.7188V111.843ZM296.535 111.843V89.7188L340.618 62.1048V61.4394L296.535 33.8255V11.7011L360.746 53.2883V70.2559L296.535 111.843Z" fill="white"/>
<path d="M92.0561 117V8.54046H116.842V52.9556H117.341L149.447 8.54046H176.561L116.842 87.3899V117H92.0561ZM152.441 117L127.156 66.5963L141.628 47.4661L179.556 117H152.441ZM236.715 118.996C232.944 118.996 229.063 118.054 225.07 116.168C221.189 114.283 217.585 111.566 214.258 108.017H213.592L211.596 117H192.466V0.389357H216.919V29.0014L216.088 41.9766H216.587C219.803 38.9823 223.351 36.6534 227.233 34.9899C231.225 33.3265 235.218 32.4947 239.21 32.4947C246.197 32.4947 252.13 34.2137 257.009 37.6515C262 41.0894 265.826 45.969 268.487 52.2902C271.149 58.5006 272.48 65.82 272.48 74.2483C272.48 83.6748 270.761 91.7704 267.323 98.5353C263.996 105.189 259.615 110.291 254.181 113.839C248.747 117.277 242.925 118.996 236.715 118.996ZM231.225 99.0343C234.22 99.0343 236.937 98.2026 239.376 96.5391C241.816 94.8756 243.757 92.2694 245.199 88.7207C246.64 85.061 247.361 80.4032 247.361 74.7474C247.361 69.7569 246.807 65.6536 245.698 62.4375C244.589 59.1106 242.925 56.6153 240.707 54.9518C238.6 53.2883 235.772 52.4566 232.223 52.4566C229.562 52.4566 226.956 53.0665 224.405 54.2864C221.965 55.3954 219.47 57.3362 216.919 60.1086V93.5448C219.248 95.4301 221.632 96.8163 224.072 97.7035C226.623 98.5907 229.007 99.0343 231.225 99.0343Z" fill="#FFD79C"/>
</svg>
